<?xml version="1.0" standalone="no"?>
<!DOCTYPE svg PUBLIC "-//W3C//DTD SVG 1.1//EN"
"http://www.w3.org/Graphics/SVG/1.1/DTD/svg11.dtd">

<svg width="530" height="488" view_box="0 0 530 488"
xmlns="http://www.w3.org/2000/svg"
xmlns:link="http://www.w3.org/1999/xlink">\n\n<desc>Généré par Mocodo 2.3.7 le Wed, 06 Nov 2019 07:49:32</desc>

<rect id="frame" x="0" y="0" width="530" height="488" fill="none" stroke="none" stroke-width="0"/>

<!-- Association Est inscrit dans -->
<line x1="86" y1="107" x2="86" y2="354" stroke="#726f83" stroke-width="1"/>
<text x="91.0" y="221" fill="#726f83" font-family="Courier New" font-size="12">1,N</text>
<line x1="271" y1="354" x2="86" y2="354" stroke="#726f83" stroke-width="1"/>
<text x="166" y="370.0" fill="#726f83" font-family="Courier New" font-size="12">1,N</text>
<g id="association-Est inscrit dans">
	<path d="M 147 328 a 14 14 90 0 1 14 14 V 354 h -150 V 342 a 14 14 90 0 1 14 -14" fill="#b2bba4" stroke="#b2bba4" stroke-width="0"/>
	<path d="M 161 354.0 v 12 a 14 14 90 0 1 -14 14 H 25 a 14 14 90 0 1 -14 -14 V 354.0 H 150" fill="#ccd6ba" stroke="#ccd6ba" stroke-width="0"/>
	<rect x="11" y="328" width="150" height="52" fill="none" rx="14" stroke="#85956b" stroke-width="1.5"/>
	<line x1="11" y1="354" x2="161" y2="354" stroke="#85956b" stroke-width="1"/>
	<text x="18" y="346.6" fill="#27360c" font-family="Courier New" font-size="14">Est inscrit dans</text>
</g>

<!-- Association Interagit avec -->
<line x1="86" y1="107" x2="271" y2="107" stroke="#726f83" stroke-width="1"/>
<text x="168" y="123.0" fill="#726f83" font-family="Courier New" font-size="12">1,N</text>
<line x1="448" y1="107" x2="271" y2="107" stroke="#726f83" stroke-width="1"/>
<text x="347" y="123.0" fill="#726f83" font-family="Courier New" font-size="12">1,N</text>
<g id="association-Interagit avec">
	<path d="M 328 54 a 14 14 90 0 1 14 14 V 80 h -142 V 68 a 14 14 90 0 1 14 -14" fill="#b2bba4" stroke="#b2bba4" stroke-width="0"/>
	<path d="M 342 80.0 v 66 a 14 14 90 0 1 -14 14 H 214 a 14 14 90 0 1 -14 -14 V 80.0 H 142" fill="#ccd6ba" stroke="#ccd6ba" stroke-width="0"/>
	<rect x="200" y="54" width="142" height="106" fill="none" rx="14" stroke="#85956b" stroke-width="1.5"/>
	<line x1="200" y1="80" x2="342" y2="80" stroke="#85956b" stroke-width="1"/>
	<text x="211" y="72.6" fill="#27360c" font-family="Courier New" font-size="14">Interagit avec</text>
	<text x="207" y="98.6" fill="#607734" font-family="Courier New" font-size="14">note</text>
	<text x="207" y="116.6" fill="#607734" font-family="Courier New" font-size="14">date_evaluation</text>
	<text x="207" y="134.6" fill="#607734" font-family="Courier New" font-size="14">peut_modifier</text>
	<text x="207" y="152.6" fill="#607734" font-family="Courier New" font-size="14">createur</text>
</g>

<!-- Association Inclut -->
<line x1="448" y1="107" x2="448" y2="354" stroke="#726f83" stroke-width="1"/>
<text x="453.0" y="203" fill="#726f83" font-family="Courier New" font-size="12">1,N</text>
<line x1="271" y1="354" x2="448" y2="354" stroke="#726f83" stroke-width="1"/>
<text x="353" y="370.0" fill="#726f83" font-family="Courier New" font-size="12">1,N</text>
<g id="association-Inclut">
	<path d="M 467 328 a 14 14 90 0 1 14 14 V 354 h -66 V 342 a 14 14 90 0 1 14 -14" fill="#b2bba4" stroke="#b2bba4" stroke-width="0"/>
	<path d="M 481 354.0 v 12 a 14 14 90 0 1 -14 14 H 429 a 14 14 90 0 1 -14 -14 V 354.0 H 66" fill="#ccd6ba" stroke="#ccd6ba" stroke-width="0"/>
	<rect x="415" y="328" width="66" height="52" fill="none" rx="14" stroke="#85956b" stroke-width="1.5"/>
	<line x1="415" y1="354" x2="481" y2="354" stroke="#85956b" stroke-width="1"/>
	<text x="422" y="346.6" fill="#27360c" font-family="Courier New" font-size="14">Inclut</text>
</g>

<!-- Entity Utilisateur -->
<g id="entity-Utilisateur">
	<g id="frame-Utilisateur">
		<rect x="9" y="9" width="154" height="26" fill="#97b8ff" stroke="#97b8ff" stroke-width="0"/>
		<rect x="9" y="35.0" width="154" height="170" fill="#c0d4ff" stroke="#c0d4ff" stroke-width="0"/>
		<rect x="9" y="9" width="154" height="196" fill="none" stroke="#578dff" stroke-width="1.5"/>
		<line x1="9" y1="35" x2="163" y2="35" stroke="#578dff" stroke-width="1"/>
	</g>
	<text x="39" y="27.6" fill="#131114" font-family="Courier New" font-size="14">Utilisateur</text>
	<text x="14" y="53.6" fill="#3e3c42" font-family="Courier New" font-size="14">idUtilisateur</text>
	<line x1="14" y1="56.0" x2="124" y2="56.0" stroke="#3e3c42" stroke-width="1"/>
	<text x="14" y="71.6" fill="#3e3c42" font-family="Courier New" font-size="14">nom</text>
	<text x="14" y="89.6" fill="#3e3c42" font-family="Courier New" font-size="14">prenom</text>
	<text x="14" y="107.6" fill="#3e3c42" font-family="Courier New" font-size="14">adresse</text>
	<text x="14" y="125.6" fill="#3e3c42" font-family="Courier New" font-size="14">email</text>
	<text x="14" y="143.6" fill="#3e3c42" font-family="Courier New" font-size="14">password</text>
	<text x="14" y="161.6" fill="#3e3c42" font-family="Courier New" font-size="14">derniere_activite</text>
	<text x="14" y="179.6" fill="#3e3c42" font-family="Courier New" font-size="14">bool_actif</text>
	<text x="14" y="197.6" fill="#3e3c42" font-family="Courier New" font-size="14">enregistre_le</text>
</g>

<!-- Entity Activite -->
<g id="entity-Activite">
	<g id="frame-Activite">
		<rect x="194" y="229" width="154" height="26" fill="#97b8ff" stroke="#97b8ff" stroke-width="0"/>
		<rect x="194" y="255.0" width="154" height="224" fill="#c0d4ff" stroke="#c0d4ff" stroke-width="0"/>
		<rect x="194" y="229" width="154" height="250" fill="none" stroke="#578dff" stroke-width="1.5"/>
		<line x1="194" y1="255" x2="348" y2="255" stroke="#578dff" stroke-width="1"/>
	</g>
	<text x="237" y="247.6" fill="#131114" font-family="Courier New" font-size="14">Activite</text>
	<text x="199" y="273.6" fill="#3e3c42" font-family="Courier New" font-size="14">idActivite</text>
	<line x1="199" y1="276.0" x2="284" y2="276.0" stroke="#3e3c42" stroke-width="1"/>
	<text x="199" y="291.6" fill="#3e3c42" font-family="Courier New" font-size="14">titre</text>
	<text x="199" y="309.6" fill="#3e3c42" font-family="Courier New" font-size="14">descriptif</text>
	<text x="199" y="327.6" fill="#3e3c42" font-family="Courier New" font-size="14">lieu</text>
	<text x="199" y="345.6" fill="#3e3c42" font-family="Courier New" font-size="14">pause</text>
	<text x="199" y="363.6" fill="#3e3c42" font-family="Courier New" font-size="14">priorite</text>
	<text x="199" y="381.6" fill="#3e3c42" font-family="Courier New" font-size="14">archive</text>
	<text x="199" y="399.6" fill="#3e3c42" font-family="Courier New" font-size="14">type</text>
	<text x="199" y="417.6" fill="#3e3c42" font-family="Courier New" font-size="14">nombre_occurences</text>
	<text x="199" y="435.6" fill="#3e3c42" font-family="Courier New" font-size="14">debut</text>
	<text x="199" y="453.6" fill="#3e3c42" font-family="Courier New" font-size="14">fin</text>
	<text x="199" y="471.6" fill="#3e3c42" font-family="Courier New" font-size="14">periodicite</text>
</g>

<!-- Entity Agenda -->
<g id="entity-Agenda">
	<g id="frame-Agenda">
		<rect x="375" y="27" width="146" height="26" fill="#97b8ff" stroke="#97b8ff" stroke-width="0"/>
		<rect x="375" y="53.0" width="146" height="134" fill="#c0d4ff" stroke="#c0d4ff" stroke-width="0"/>
		<rect x="375" y="27" width="146" height="160" fill="none" stroke="#578dff" stroke-width="1.5"/>
		<line x1="375" y1="53" x2="521" y2="53" stroke="#578dff" stroke-width="1"/>
	</g>
	<text x="422" y="45.6" fill="#131114" font-family="Courier New" font-size="14">Agenda</text>
	<text x="380" y="71.6" fill="#3e3c42" font-family="Courier New" font-size="14">idAgenda</text>
	<line x1="380" y1="74.0" x2="448" y2="74.0" stroke="#3e3c42" stroke-width="1"/>
	<text x="380" y="89.6" fill="#3e3c42" font-family="Courier New" font-size="14">nomAgenda</text>
	<text x="380" y="107.6" fill="#3e3c42" font-family="Courier New" font-size="14">priorite</text>
	<text x="380" y="125.6" fill="#3e3c42" font-family="Courier New" font-size="14">maj</text>
	<text x="380" y="143.6" fill="#3e3c42" font-family="Courier New" font-size="14">superposabilite</text>
	<text x="380" y="161.6" fill="#3e3c42" font-family="Courier New" font-size="14">archive</text>
	<text x="380" y="179.6" fill="#3e3c42" font-family="Courier New" font-size="14">nombre_activites</text>
</g>
</svg>